<svg width="23" height="23" viewBox="0 0 23 23" fill="none" xmlns="http://www.w3.org/2000/svg">
<g opacity="0.3" filter="url(#filter0_d_57221_453)">
<path d="M9.5 10C9.8 10 10 9.8 10 9.5C10 9.2 9.8 9 9.5 9C9.2 9 9 9.2 9 9.5C9 9.8 9.2 10 9.5 10Z" fill="black"/>
<path d="M18 2H16V0H15V2H8V0H7V2H5C4.4 2 4 2.4 4 3V6V7V14C4 14.5 4.4 15 5 15H18C18.5 15 19 14.5 19 14V7V6V3C19 2.4 18.5 2 18 2ZM18 14H5V7H18V14ZM5 6V3H7V5H8V3H15V5H16V3H18V6H5Z" fill="black"/>
<path d="M11.5 10C11.8 10 12 9.8 12 9.5C12 9.2 11.8 9 11.5 9C11.2 9 11 9.2 11 9.5C11 9.8 11.2 10 11.5 10Z" fill="black"/>
<path d="M13.5 10C13.8 10 14 9.8 14 9.5C14 9.2 13.5 9 13.5 9L13 9.5C13 9.8 13.2 10 13.5 10Z" fill="black"/>
<path d="M9.5 11C9.2 11 9 11.2 9 11.5C9 11.8 9.2 12 9.5 12C9.8 12 10 11.8 10 11.5C10 11.2 9.8 11 9.5 11Z" fill="black"/>
<path d="M7.5 10C7.8 10 8 9.8 8 9.5C8 9.2 7.8 9 7.5 9C7.2 9 7 9.2 7 9.5C7 9.8 7.2 10 7.5 10Z" fill="black"/>
<path d="M7.5 11C7.2 11 7 11.2 7 11.5C7 11.8 7.2 12 7.5 12C7.8 12 8 11.8 8 11.5C8 11.2 7.8 11 7.5 11Z" fill="black"/>
<path d="M11.5 11C11.2 11 11 11.2 11 11.5C11 11.8 11.2 12 11.5 12C11.8 12 12 11.8 12 11.5C12 11.2 11.8 11 11.5 11Z" fill="black"/>
<path d="M13.5 11C13.2 11 13 11.2 13 11.5C13 11.8 13.2 12 13.5 12C13.8 12 14 11.8 14 11.5C14 11.2 13.8 11 13.5 11Z" fill="black"/>
<path d="M15.5 10C15.8 10 16 9.8 16 9.5C16 9.2 15.8 9 15.5 9C15.2 9 15 9.2 15 9.5C15 9.8 15.2 10 15.5 10Z" fill="black"/>
<path d="M15.5 11C15.2 11 15 11.2 15 11.5C15 11.8 15.2 12 15.5 12C15.8 12 16 11.8 16 11.5C16 11.2 15.8 11 15.5 11Z" fill="black"/>
</g>
<defs>
<filter id="filter0_d_57221_453" x="0" y="0" width="23" height="23" filterUnits="userSpaceOnUse" color-interpolation-filters="sRGB">
<feFlood flood-opacity="0" result="BackgroundImageFix"/>
<feColorMatrix in="SourceAlpha" type="matrix" values="0 0 0 0 0 0 0 0 0 0 0 0 0 0 0 0 0 0 127 0" result="hardAlpha"/>
<feOffset dy="4"/>
<feGaussianBlur stdDeviation="2"/>
<feComposite in2="hardAlpha" operator="out"/>
<feColorMatrix type="matrix" values="0 0 0 0 0 0 0 0 0 0 0 0 0 0 0 0 0 0 0.25 0"/>
<feBlend mode="normal" in2="BackgroundImageFix" result="effect1_dropShadow_57221_453"/>
<feBlend mode="normal" in="SourceGraphic" in2="effect1_dropShadow_57221_453" result="shape"/>
</filter>
</defs>
</svg>
