<svg width="457" height="351" viewBox="0 0 457 351" fill="none" xmlns="http://www.w3.org/2000/svg">
<path d="M152.3 77L149.5 81.9H146.8L145.9 83.3H148.7L142.6 93.7C141.3 95.9 142.2 97.9 144.7 97.9C146.5 97.9 148.4 96.6 150.3 94.8C150.3 98.6 155.6 99.3 158.9 95.3H159.6C161.4 95.3 164.2 94.2 165.8 92.4C165.6 92 165.1 91.5 164.7 91.4L164.5 91.6C163.1 93.1 161.5 93.8 159.9 93.8L162.7 89C164.5 85.9 162.8 82.9 160 82.9C157.7 82.9 155.9 83.8 154.1 86.8L152.6 89.4L151.4 91.5L151.2 91.7C149 94.2 146.9 96.2 145.6 96.2C144.9 96.2 144.6 95.7 145.3 94.6L151.8 83.4H154.3L155 81.9H152.5L155.3 77H152.3ZM159.8 84.8C160.8 84.9 161.2 86.1 160.2 87.8L158 91.5H157.9C156.9 91.5 156.1 92.3 156.1 93.3C156.1 93.7 156.2 94 156.4 94.3V94.4C155 96.8 151.5 96.4 153.3 93.3L155.6 89.4L157.1 87C158 85.4 159.1 84.8 159.8 84.8ZM181.8 77L179 81.9H176.3L175.4 83.3H178.2L172 93.7C170.7 95.9 171.6 97.9 174.1 97.9C175.3 97.9 176.6 97.3 178 96.3L177.2 97.6H180.2L184.8 89.7C189.4 83.9 191.5 84.7 190.2 86.9L186.3 93.6C185 95.8 185.9 97.8 188.4 97.8C190.2 97.8 192.2 96.4 194.1 94.6C194.2 96.5 195.8 97.8 198.2 97.8C201.6 97.8 205 95.2 207.5 92.3C207.3 91.9 206.8 91.4 206.4 91.3L206.2 91.5C204 94 201.2 96 199.1 96C197.2 96 196.1 94.9 197.5 92.4L197.8 91.9C199.7 92.7 203.4 92.3 205.7 88.5L206.1 87.8C207.7 85 206.2 83 203.7 83C201.3 83 199.3 84.3 198 86.4L195.1 91.4L194.9 91.6C192.7 94.1 190.6 96.1 189.3 96.1C188.6 96.1 188.3 95.6 188.9 94.5L193.3 87C194.6 84.7 193.4 83.1 191.7 83.1C190.4 83.1 189 83.8 187.5 85.4L192.3 77.1H189.3L180.9 91.5L180.7 91.7C178.5 94.2 176.4 96.2 175.1 96.2C174.4 96.2 174.1 95.7 174.8 94.6L181.3 83.4H183.8L184.7 82H182.2L185 77.1L181.8 77ZM203.1 85.2C204.1 85.1 204.6 86.1 203.6 87.8L203.2 88.5C201.8 90.9 199.8 90.9 198.7 90.5L200.6 87.1C201.3 85.9 202.3 85.3 203.1 85.2ZM247.4 79.8C245.7 81.3 245.5 83 246.6 84.4L246.9 84.7C245.6 86.6 243.8 89.1 241.8 91.4L241.6 91.6C240.2 93.1 238.6 93.8 237 93.8L239.8 89C241.6 85.9 239.9 82.9 237.1 82.9C234.8 82.9 233 83.8 231.2 86.8L229.7 89.4L228.5 91.5L228.3 91.7C225.8 94.5 223.7 96.4 221.3 97.4L228.1 86H226.3C226.3 84.8 225 83.1 223.1 83.1C221.5 83.1 219.2 84.4 217.9 86.5L213.7 93.7C212.4 95.9 213.3 97.9 215.8 97.9C216.6 97.9 217.7 97.5 218.7 96.9L217.9 98.3C213.8 99.5 211.3 101.2 211.3 103.4C211.3 106.3 215.7 106.9 217.9 103.2L220.2 99.3C222.6 98.6 225 97.2 227.4 94.8C227.4 98.6 232.7 99.4 236 95.3H236.7C238.5 95.3 241.3 94.2 242.9 92.4C244.3 90.7 245.5 89.2 247.9 86L248.3 86.5C248.7 87 248.8 87.6 248.5 88.2L245.3 93.7C244 95.9 244.9 97.9 247.4 97.9C248.9 97.9 250.6 96.9 252.2 95.5C252.1 96.9 253.1 97.9 254.8 97.9C255.6 97.9 256.7 97.5 257.7 96.9L256.9 98.3C252.8 99.5 250.3 101.2 250.3 103.4C250.3 106.3 254.7 106.9 256.9 103.2L259.2 99.3C261.7 98.5 264.1 97.1 266.6 94.7C266.7 96.6 268.3 97.9 270.7 97.9C273.2 97.9 275.6 96.5 277.7 94.7C277.6 98.6 283 99.4 286.3 95.3H287C287.9 95.3 289.2 95 290.4 94.4C289.6 96.5 290.3 97.9 292.1 97.9C293.8 97.9 295.6 96.4 297.1 95C296.8 96.6 297.8 97.9 299.7 97.9C302.2 97.9 305.1 95.3 307.6 92.4C309.3 90.4 310.8 88.4 311.9 87C310.7 90.1 311.3 95.7 308.5 95.7C307.5 95.7 307.1 94.6 307.1 94.6L305.2 95.6C305.2 95.6 305.8 98 308.5 98C308.8 98 309.1 98 309.3 97.9H309.4C312.5 97.5 315.5 95.1 317.8 92.5C317.6 92 317.1 91.6 316.7 91.5L316.5 91.7C315.4 92.9 314.2 94 312.9 94.9C313.9 92.1 313.7 87.7 315.5 83.9L313.2 82.7C312 84.4 309.2 88.3 306.5 91.4L306.3 91.6C304.1 94.1 302 96.1 300.7 96.1C300 96.1 299.7 95.6 300.4 94.5L306.8 83.3H303.8L298.4 92.6C296.1 94.7 294.3 95.8 293.8 95.6C293 95.3 293.8 94.2 294.2 93.5L300.1 83.3H297.1L292.4 91.4L292.2 91.6C290.8 93.1 289.2 93.8 287.6 93.8L290.4 89C292.2 85.9 290.5 82.9 287.7 82.9C285.4 82.9 283.6 83.8 281.8 86.8L280.3 89.4L279.1 91.5L278.9 91.7C276.7 94.2 273.9 96.2 271.8 96.2C269.9 96.2 268.8 95.1 270.2 92.6L270.5 92.1C272.4 92.9 276.1 92.5 278.4 88.7L278.8 88C280.4 85.2 278.9 83.2 276.4 83.2C274 83.2 272 84.5 270.7 86.6L267.8 91.6L267.6 91.8C265.1 94.6 263 96.5 260.6 97.5L267.4 86.1H265.6C265.6 84.9 264.3 83.2 262.4 83.2C260.8 83.2 258.5 84.5 257.2 86.6L254.3 91.5L254.1 91.7C251.9 94.2 249.8 96.2 248.5 96.2C247.8 96.2 247.5 95.7 248.2 94.6L251.2 89.4C252.2 87.6 251.8 86.5 250.8 85.4L249.1 83.4C248.7 82.9 248.7 82.3 249.3 81.7L247.4 79.8ZM237.1 84.8C238.1 84.9 238.6 86.1 237.5 87.8L235.3 91.5H235.2C234.2 91.5 233.4 92.3 233.4 93.3C233.4 93.7 233.5 94 233.7 94.3V94.4C232.3 96.8 228.8 96.4 230.6 93.3L232.9 89.4L234.4 87C235.3 85.4 236.3 84.8 237.1 84.8ZM287.3 84.8C288.3 84.9 288.8 86.1 287.7 87.8L285.5 91.5H285.4C284.4 91.5 283.6 92.3 283.6 93.3C283.6 93.7 283.7 94 283.9 94.3V94.4C282.5 96.8 279 96.4 280.8 93.3L283.1 89.4L284.6 87C285.4 85.4 286.5 84.8 287.3 84.8ZM275.6 85.2C276.6 85.1 277.1 86.1 276.1 87.8L275.7 88.5C274.2 90.9 272.3 90.9 271.2 90.5L273.1 87.1C273.8 85.9 274.8 85.3 275.6 85.2ZM223.2 85.4C224.2 85.4 224.9 86.3 224 87.8L221.7 91.8C219.9 94.7 218 96.1 216.8 96.1C216.1 96.1 215.8 95.6 216.5 94.5L220.7 87.2C221.4 86 222.4 85.4 223.2 85.4ZM262.1 85.4C263.1 85.4 263.8 86.3 262.9 87.8L260.6 91.8C258.8 94.7 256.9 96.1 255.7 96.1C255 96.1 254.7 95.6 255.4 94.5L259.6 87.2C260.3 86 261.3 85.4 262.1 85.4ZM216.8 100.3L215.4 102.7C214.8 103.8 213.7 103.6 213.7 102.8C213.7 102.1 214.5 101.2 216.8 100.3ZM255.7 100.3L254.3 102.7C253.7 103.8 252.6 103.6 252.6 102.8C252.7 102.1 253.4 101.2 255.7 100.3ZM101 88.7H129.9V90.6H101V88.7ZM328.1 88.7H357V90.6H328.1V88.7Z" fill="#766458"/>
<path d="M322.7 37.4V45.1H301.9V0.400002H322.7V8H309.5V18.8H320V26.5H309.5V37.4H322.7ZM289.9 0.400002H297.5V45.1H289.9V23.1L286.9 34.5H279.5L276.5 23.1V45.1H268.9V0.400002H276.5L283.3 22L289.9 0.400002ZM258 8H252.5V37.3H258V8ZM261 0.400002C263.5 0.400002 265.7 2.5 265.7 5.1V40.4C265.7 43 263.5 45.1 261 45.1H249.6C247 45.1 244.9 42.9 244.9 40.4V5.1C244.9 2.5 247 0.400002 249.6 0.400002H261ZM233 28.6L240.7 26.8V40.4C240.7 43 238.5 45.1 236 45.1H224.6C222 45.1 219.9 42.9 219.9 40.4V5.1C219.9 2.5 222 0.400002 224.6 0.400002H236C238.5 0.400002 240.7 2.5 240.7 5.1V14.2L233 16V8H227.5V37.3H233V28.6ZM216.2 37.4V45.1H198V0.400002H205.6V37.4H216.2ZM194.8 37.4V45.1H174V0.400002H194.8V8H181.6V18.8H192.1V26.5H181.6V37.4H194.8ZM162.6 0.400002H170.3L169 45.1H154.5L152.5 26.6L150.5 45.1H136L135 0.400002H142.6L143.2 37.4H144L148.8 0.400002H156.4L161.3 37.4H162.1L162.6 0.400002Z" fill="#81B3D3"/>
<path d="M380.4 213.7L405.8 139.7H431L456.7 213.7H436.5L432.8 200.3H404.2L400.4 213.7H380.4ZM416.1 161.6L408.6 186.1H428.7L421.2 161.6C420.8 160.4 420.4 159.2 420 158C419.7 156.7 419.4 155.5 419.2 154.2C419 153.7 418.9 153.3 418.9 152.9C418.8 152.4 418.7 152 418.7 151.6C418.6 152 418.5 152.4 418.4 152.9C418.3 153.3 418.2 153.7 418.2 154.2C418.1 154.4 418.1 154.5 418.1 154.7C418.1 154.8 418.1 154.9 418 155C417.8 156.1 417.5 157.3 417.2 158.4C416.7 159.4 416.4 160.5 416.1 161.6ZM298.4 213.7V139.7H317.9L345.8 177.7C346.5 178.8 347.2 180 347.8 181.2C348.5 182.4 349.2 183.6 349.8 184.8L351.2 187.8C351.7 188.8 352.1 189.8 352.6 190.7C352.5 189.9 352.4 189.1 352.3 188.3C352.2 187.5 352.1 186.7 352.1 185.9C351.9 184.3 351.8 182.7 351.8 181.1C351.7 179.4 351.7 177.8 351.7 176.1V139.8H371.1V213.8H351.7L323.6 175.6C322.8 174.7 322.1 173.6 321.4 172.3C320.7 171 320 169.6 319.4 168.2C319 167.2 318.5 166.3 318 165.3C317.6 164.4 317.3 163.4 316.8 162.5C317.2 164.9 317.5 167.3 317.7 169.8C317.9 172.3 318 174.8 318 177.2V213.7H298.4ZM210.4 158.8C214 152.2 218.9 147.2 225.3 143.7C231.7 140.2 238.3 138.5 245.2 138.5C246.1 138.5 247.1 138.5 248 138.6C249 138.7 250 138.8 250.9 138.8C253.8 139.2 256.6 139.9 259.4 140.9C262.3 141.9 265 143.2 267.5 144.8C273 148.4 277.3 153.1 280.3 159.1C283.3 165 284.8 171.1 284.8 177.6C284.8 178.4 284.8 179.2 284.7 180C284.7 180.8 284.6 181.5 284.5 182.3C284.3 184 284 185.6 283.6 187.2C283.2 188.8 282.7 190.3 282.1 191.8C278.8 199.3 273.8 205.2 266.9 209.3C260 213.4 252.8 215.5 245.2 215.5C244.7 215.5 244.1 215.5 243.6 215.4H242.1C239.4 215.2 236.8 214.7 234.2 214C231.6 213.3 229.1 212.3 226.8 211.1C220.3 207.7 215.2 202.9 211.5 196.6C207.8 190.3 205.9 183.7 205.9 176.9C205.9 175.9 205.9 174.9 206 173.9C206.1 172.9 206.2 171.8 206.5 170.8C206.9 168.8 207.4 166.7 208.1 164.8C208.5 162.6 209.4 160.7 210.4 158.8ZM263.2 185.4C263.4 184.6 263.6 183.8 263.8 183C264 182.1 264.2 181.3 264.3 180.4C264.4 179.9 264.4 179.3 264.4 178.8C264.5 178.3 264.5 177.8 264.5 177.3C264.5 176.8 264.5 176.4 264.4 175.9V174.5C264 171.2 263 168 261.4 164.9C259.8 161.8 257.5 159.4 254.7 157.7C253.9 157.3 253.2 157 252.4 156.7C251.6 156.4 250.9 156.1 250.1 155.9C249.3 155.7 248.6 155.6 247.8 155.6C247 155.4 246.3 155.4 245.5 155.4C241.6 155.4 237.9 156.6 234.6 159.1C231.3 161.6 228.9 164.9 227.6 169L227.4 169.5V170C227.2 170.7 227 171.5 226.8 172.2C226.6 172.9 226.5 173.6 226.3 174.4L226.1 176V178.4C226.1 178.6 226.1 178.9 226.2 179.2C226.4 183.3 227.7 187.2 229.9 190.9C232.2 194.5 235.4 196.9 239.4 198.1L240.8 198.6C241.3 198.7 241.8 198.8 242.3 198.8L243.7 199H245.1C249.2 199 252.9 197.8 256.1 195.4C259.4 192.8 261.8 189.5 263.2 185.4ZM181.1 206.8C177.5 209.3 173.5 211 169.3 211.9C165.1 212.8 160.7 213.4 156.4 213.6C155.2 213.7 153.9 213.7 152.7 213.7H128.9V139.7H154C155.2 139.7 156.4 139.7 157.6 139.8C161.8 140 165.9 140.6 169.9 141.5C174 142.4 177.8 144.2 181.2 146.6C185.5 149.6 188.9 153.6 191.3 158.6C193.7 163.6 195.1 168.7 195.4 173.9C195.5 174.4 195.5 174.8 195.5 175.3V178.2C195.3 183.7 194 189 191.6 194.1C189.2 199.2 185.6 203.5 181.1 206.8ZM148.7 197.1C148.9 197.1 149.2 197.1 149.4 197.2H150.2C150.5 197.2 150.8 197.2 151 197.3H154.1C155 197.2 155.8 197.1 156.5 197.1C158.5 196.9 160.5 196.6 162.4 196.1C164.3 195.6 166.1 194.7 167.6 193.7C170.1 191.9 171.9 189.5 173.1 186.5C174.3 183.4 175 180.2 175 176.9V176C175 175.7 175 175.4 174.9 175.1C174.7 172.2 174 169.3 172.8 166.6C171.6 163.8 169.9 161.6 167.7 160C166.1 158.7 164.2 157.8 162.2 157.3C160.2 156.8 158.2 156.6 156.2 156.5H148.7V197.1ZM68.8 213.7V139.7H114.2V155.8H88.6V168.8H112.6V184.6H88.6V197.1H114.1V213.7H68.8ZM9.4 189.9C9.5 190 9.5 190.1 9.5 190.1C9.6 190.1 9.7 190.1 9.7 190.2C11.8 192.5 14.2 194.7 16.8 196.7C19.4 198.6 22.5 199.7 25.9 199.8C26 199.8 26.1 199.8 26.1 199.9H26.4C26.5 199.9 26.6 199.9 26.6 200H27.9C28.3 199.9 28.6 199.8 28.9 199.8C30.1 199.6 31.3 199.1 32.4 198.4C33.6 197.7 34.5 196.9 35.1 195.8L35.3 195.3L35.5 194.8C35.7 194.3 35.8 193.8 35.8 193.3C35.9 192.8 35.9 192.4 35.9 192C35.9 189.9 35 188.2 33.1 186.8C31.4 185.4 29.4 184.2 27.3 183.4C26.5 183.1 25.7 182.9 24.9 182.7C24.2 182.5 23.4 182.3 22.7 182.1H22.5C22.4 182 22.3 182 22.3 182C18.5 181.1 14.9 179.6 11.6 177.6C8.3 175.5 6 172.5 4.7 168.7C4.5 167.9 4.2 167.1 4 166.3C3.8 165.4 3.7 164.5 3.7 163.6C3.7 163.5 3.7 163.2 3.7 163V160.2C3.8 159.6 3.9 159 4 158.3C4.2 156.7 4.6 155.2 5.2 153.7C5.7 152.2 6.4 150.8 7.3 149.5C9.8 145.4 13 142.5 16.8 140.7C20.7 138.9 24.9 138 29.1 138C30.1 138 31.1 138.1 32.1 138.2C33.2 138.3 34.3 138.4 35.4 138.5C38.2 139 41 139.8 43.6 140.8C46.4 141.9 48.9 143.2 51.3 144.6L44.9 158.9C42.8 157.4 40.6 156 38.3 154.8C36 153.6 33.5 153.1 30.8 153.1H29.9C28.1 153.3 26.5 154.1 24.9 155.5C23.4 156.8 22.6 158.2 22.6 159.8V160.5C22.7 160.7 22.8 161 22.9 161.2C23.1 161.7 23.3 162.2 23.7 162.7C24.1 163.2 24.5 163.6 25 164C25.9 164.7 27.1 165.4 28.7 166C30.3 166.5 32 167.1 33.8 167.6C35.3 168 36.7 168.4 38.1 168.8C39.5 169.1 40.7 169.4 41.6 169.7C45.9 171.2 49.2 173.8 51.4 177.5C53.6 181.1 54.7 184.9 54.8 188.9V189.5C54.8 190 54.8 190.4 54.7 190.9V192.2C54.2 196.2 52.9 200.1 50.8 203.7C48.7 207.3 45.9 210.1 42.3 212.1C41 212.7 39.6 213.3 38.2 213.7C36.8 214.1 35.4 214.4 34 214.7C32.9 214.9 31.7 215.1 30.5 215.2C29.4 215.4 28.3 215.4 27.1 215.4H25.7C21.1 215.2 16.5 214.2 12 212.4C7.5 210.5 3.5 207.9 0 204.7L9.4 189.9ZM351 337C351 336.7 351.1 336.4 351.2 336.1C351.3 335.8 351.5 335.5 351.7 335.3C351.9 335.1 352.2 334.9 352.5 334.7C352.8 334.6 353.2 334.5 353.6 334.5C354.1 334.5 354.5 334.6 354.9 334.8C355.3 335 355.7 335.2 356 335.5C356.2 335.8 356.4 336.1 356.6 336.5C356.7 336.9 356.8 337.3 356.8 337.8C356.8 338.7 356.6 339.4 356.3 340.2C356 340.9 355.6 341.6 355 342.1C354.7 342.4 354.5 342.6 354.2 342.8C353.9 343 353.6 343.2 353.3 343.3C353 343.4 352.8 343.6 352.6 343.7C352.5 343.8 352.4 343.8 352.2 343.9L350.8 341.9C351 341.8 351.3 341.7 351.6 341.5C351.9 341.4 352.2 341.2 352.5 341C352.8 340.8 353 340.5 353.2 340.2C353.4 339.9 353.5 339.6 353.5 339.2C352.9 339.2 352.3 339 351.8 338.6C351.2 338.3 351 337.8 351 337ZM358.8 337C358.8 336.7 358.9 336.4 359 336.1C359.1 335.8 359.3 335.5 359.5 335.3C359.7 335.1 360 334.9 360.3 334.7C360.6 334.6 361 334.5 361.4 334.5C361.9 334.5 362.3 334.6 362.7 334.8C363.1 335 363.5 335.2 363.8 335.5C364 335.8 364.2 336.1 364.4 336.5C364.5 336.9 364.6 337.3 364.6 337.8C364.6 338.6 364.5 339.4 364.1 340.2C363.8 340.9 363.4 341.6 362.8 342.1C362.5 342.4 362.3 342.6 362 342.8C361.7 343 361.4 343.2 361.1 343.3C360.8 343.4 360.6 343.6 360.4 343.7C360.3 343.8 360.2 343.8 360 343.9L358.7 341.9C358.9 341.8 359.2 341.7 359.5 341.5C359.8 341.4 360.1 341.2 360.4 341C360.7 340.8 360.9 340.5 361.1 340.2C361.3 339.9 361.4 339.6 361.4 339.2C360.8 339.2 360.2 339 359.7 338.6C359 338.3 358.8 337.8 358.8 337ZM94.2 278.3C94.2 278.6 94.1 278.9 94 279.2C93.9 279.5 93.7 279.8 93.5 280C93 280.5 92.3 280.8 91.6 280.8C91.2 280.8 90.7 280.7 90.3 280.5C89.9 280.3 89.5 280.1 89.2 279.8C88.9 279.5 88.7 279.1 88.6 278.8C88.5 278.4 88.4 278 88.4 277.5C88.4 276.6 88.6 275.9 88.9 275.1C89.2 274.4 89.6 273.7 90.2 273.2C90.5 272.9 90.7 272.7 91 272.5C91.3 272.3 91.6 272.1 91.9 272C92.2 271.9 92.4 271.7 92.6 271.6C92.8 271.5 92.9 271.5 93 271.4L94.3 273.4C94 273.5 93.7 273.6 93.5 273.8C93.2 273.9 92.9 274.1 92.6 274.3C92.3 274.5 92.1 274.8 91.9 275.1C91.7 275.4 91.6 275.7 91.6 276.1C92.3 276.1 92.8 276.3 93.3 276.7C94 277.1 94.2 277.6 94.2 278.3ZM86.4 278.3C86.4 278.9 86.2 279.5 85.7 280C85.5 280.2 85.2 280.4 84.9 280.6C84.6 280.7 84.2 280.8 83.8 280.8C83.4 280.8 82.9 280.7 82.5 280.5C82.1 280.3 81.7 280.1 81.4 279.8C81.1 279.5 80.9 279.1 80.8 278.8C80.7 278.4 80.6 278 80.6 277.5C80.6 276.6 80.8 275.9 81.1 275.1C81.4 274.4 81.8 273.7 82.4 273.2C82.6 273 82.9 272.7 83.2 272.5C83.5 272.3 83.8 272.1 84.1 272C84.4 271.9 84.6 271.7 84.8 271.6C85 271.5 85.1 271.5 85.2 271.4L86.5 273.4C86.3 273.5 86 273.6 85.7 273.8C85.4 273.9 85.1 274.1 84.8 274.3C84.5 274.5 84.3 274.8 84.1 275.1C83.9 275.4 83.8 275.7 83.8 276.1C84.5 276.1 85 276.3 85.5 276.7C86.1 277.1 86.4 277.6 86.4 278.3ZM331.7 335.2H335.5L347.3 314.6H343.5L331.7 335.2ZM331.6 336.7C330.4 336.7 329.4 337.7 329.4 338.9C329.4 340.1 330.3 341.1 331.6 341.1C332.8 341.1 333.8 340.2 333.8 338.9C333.8 337.6 332.8 336.7 331.6 336.7ZM305.2 331.2L306.3 329.3C310.7 323.2 313.6 324.9 312.3 327.2L310.5 330.3C309.4 332.2 306 333.6 305.2 331.2ZM330.3 334.1C330.1 333.5 329.4 332.9 328.9 332.8L328.6 333.1C327.3 334.7 325.7 336 324.1 337.2C325.3 333.6 325 328.1 327.4 323.2L324.6 321.7C323 323.8 319.6 328.8 316.2 332.8L315.9 333.1C313.2 336.3 310.5 338.8 308.9 338.8C308.1 338.8 307.3 338 307.3 336.3V334.7C310 335 312.8 333.3 314.5 330.2L315.5 328.5C319 322.5 313.3 320.5 309.4 324L314.8 314.7H311L300.2 333.4C300 333.2 299.8 333.1 299.5 332.9L299.2 333.2C296.5 336.4 293 338.9 290.3 338.9C288 338.9 286.6 337.4 288.3 334.4L292.2 327.6C294.4 323.9 298.2 324.5 296 328.4L295.5 329.3H298.6L299.1 328.4C301.1 324.9 299.2 322.3 296.1 322.3C293 322.3 290.6 323.9 289 326.7L285.3 333.1C285.2 333.1 285.1 333 285.1 333L284.8 333.3C282.1 336.5 279.4 339 277.8 339C277 339 276.5 338.4 277.4 336.9L285.5 322.8H281.7L275 334.5C272.1 337.1 269.9 338.6 269.2 338.2C268.3 337.8 269.2 336.4 269.7 335.6L277.1 322.7H273.3L266 335.4C265.2 336.1 263.6 336.8 262.8 337.3C264 333.7 263.7 328.2 266.1 323.3L263.3 321.8C261.7 323.9 253 335.5 249.6 339.5C249.9 340 250.5 340.4 251 340.8C253.1 338.3 260.3 329.1 261.7 327.3C260.2 331.2 261 338.3 257.4 338.3C256.1 338.3 255.6 336.9 255.6 336.9L253.2 338.1C253.2 338.1 253.9 341.1 257.3 341.1C257.7 341.1 258 341.1 258.4 341H258.5C260.4 340.7 263.1 339.9 264.9 338.6C264.9 340.1 265.8 341.1 267.4 341.1C269.5 341.1 271.8 339.2 273.6 337.5C273.2 339.5 274.4 341.1 276.8 341.1C279.1 341.1 281.8 339.2 284.2 336.7C284.2 339.2 286.2 341.1 289.3 341.1C292.4 341.1 295.4 339.4 298 337.1L295.9 340.8H299.7L304 333.3V336.3C304 339.5 304.6 341.2 307.7 341.2C310.8 341.2 314.4 337.9 317.5 334.2C319.6 331.7 321.5 329.1 322.9 327.3C321.4 331.2 322.2 338.3 318.6 338.3C317.3 338.3 316.8 336.9 316.8 336.9L314.4 338.1C314.4 338.1 315.1 341.1 318.5 341.1C318.9 341.1 319.2 341.1 319.6 341H319.7C323.7 340.5 327.5 337.4 330.3 334.1ZM215.7 333H215.5C214.3 333 213.3 334 213.3 335.3C213.3 335.8 213.4 336.2 213.7 336.6V336.7C211.9 339.7 207.6 339.2 209.8 335.2L212.7 330.2L214.5 327.1C217.2 322.6 220.8 324.4 218.5 328.3L215.7 333ZM190.3 347.2C189.5 348.6 188.2 348.4 188.2 347.4C188.2 346.4 189.1 345.3 192 344.2L190.3 347.2ZM161.5 333.4C159.2 337 157 338.7 155.4 338.7C154.6 338.7 154.1 338.1 155 336.6L160.3 327.4C162.3 323.9 166.4 324.8 164.5 328.2L161.5 333.4ZM149.5 318.7C150.6 316.8 151.9 315.9 152.9 315.9C154.3 315.9 155 316.8 155 318.2C155 321.7 150.6 329 144.8 328.1H144L149.5 318.7ZM242.3 332.8L242 333.1C239.3 336.3 236.6 338.8 235 338.8C234.2 338.8 233.7 338.2 234.6 336.7L240 327.1C241.6 324.2 240.1 322.2 238 322.2C236.4 322.2 234.7 323.1 232.8 325L234.2 322.5H230.4L224.3 333C224.1 332.9 224 332.8 223.8 332.7L223.5 333C221.8 334.9 219.7 335.8 217.8 335.8L221.4 329.7C223.7 325.7 221.6 322 218 322C215.1 322 212.8 323.2 210.7 326.9L208.8 330.1L207.2 332.9C207.1 332.8 207 332.8 206.9 332.7L206.6 333C203.5 336.6 200.8 338.9 197.8 340.2L208.2 322.5H204.4L197.7 334.1C194.8 336.8 192.5 338.3 191.8 338C190.9 337.6 191.8 336.2 192.3 335.4L199.7 322.5H195.9L189.9 332.9C189.8 332.8 189.7 332.8 189.6 332.7L189.3 333C186.6 336.2 183.9 338.7 182.3 338.7C181.5 338.7 181 338.1 181.9 336.6L187.3 327C188.9 324.1 187.4 322.1 185.3 322.1C183.7 322.1 182 323 180.1 324.9L181.5 322.4H177.7L171.7 332.8C171.6 332.7 171.5 332.7 171.3 332.6L171 332.9C168.3 336.1 165.6 338.6 164 338.6C163.2 338.6 162.7 338 163.6 336.5L169.7 325.8H167.6C167.7 324.2 166.1 322 163.6 322C161.6 322 158.7 323.6 157.1 326.4L153.2 333.1C152.9 332.9 152.6 332.7 152.4 332.6L152.1 332.9C149.4 336.1 147.3 338.6 143.5 338.6C140.9 338.6 139.4 336 141.6 332.2L142.7 330.3C143.4 330.4 144.1 330.5 144.8 330.5C148.8 330.5 153.4 328.4 156.4 323.2C157.5 321.3 157.9 319.6 157.9 318.1C157.9 314.7 155.7 312.5 152.9 312.5C150.8 312.5 148.4 314 146.7 316.9L140.8 327C138.6 325.8 137.4 323.7 137.4 321.6C137.4 319.9 138.2 318.1 139.8 316.8L138.6 314.6C135.9 316.5 134.7 319.1 134.7 321.6C134.7 324.6 136.4 327.5 139.5 329.1L138.4 331.1C135.7 335.7 137.3 340.8 142.6 340.8C146.8 340.8 148.7 338.9 151.3 336.4C150.5 338.8 151.7 340.8 154.3 340.8C155.8 340.8 157.7 339.8 159.5 338.3C159.7 339.8 160.8 340.8 162.8 340.8C164.6 340.8 166.6 339.7 168.5 338L167.1 340.4H170.9L176.7 330.3C182.5 323.1 185.1 324 183.4 326.8L178.5 335.3C176.9 338.1 178 340.7 181.1 340.7C183.1 340.7 185.4 339.3 187.5 337.3C187 339.4 188 340.7 189.9 340.7C191.7 340.7 193.8 339.2 195.5 337.7L193.4 341.3C188.3 342.8 185.1 344.9 185.1 347.8C185.1 351.4 190.7 352.2 193.4 347.5L196.3 342.5C199.5 341.5 202.6 339.5 205.8 336.3C205.3 341.6 212.3 342.8 216.5 337.4H217.3C218.7 337.4 220.5 336.9 222.2 335.9L219.7 340.3H223.5L229.3 330.2C235.1 323 237.7 323.9 236 326.7L231.1 335.2C229.5 338 230.6 340.6 233.7 340.6C236.8 340.6 240.4 337.3 243.5 333.6C243.4 333.6 242.8 333 242.3 332.8ZM360.9 297.2C358.6 300.9 356.3 302.7 354.7 302.7C353.9 302.7 353.4 302.1 354.3 300.6L359.6 291.4C361.6 287.9 365.7 288.8 363.8 292.2L360.9 297.2ZM324.7 297.4C322.4 301 320.2 302.7 318.6 302.7C317.8 302.7 317.3 302.1 318.2 300.6L323.5 291.4C325.5 287.9 329.6 288.8 327.7 292.2L324.7 297.4ZM284.8 311.2C284 312.6 282.7 312.4 282.7 311.4C282.7 310.4 283.6 309.3 286.5 308.2L284.8 311.2ZM292.8 282.7C293.9 280.8 295.2 279.9 296.2 279.9C302.2 279.9 297.7 294.3 288.1 292.1H287.3L292.8 282.7ZM370.5 296.8L370.2 297.1C367.5 300.3 364.8 302.8 363.2 302.8C362.4 302.8 361.9 302.2 362.8 300.7L375.6 278.6H371.8L366.2 288.2C365.5 287.1 364.3 286.2 362.7 286.2C360.7 286.2 357.8 287.8 356.2 290.6L352.5 297C352.4 297 352.3 296.9 352.3 296.9L352 297.2C349.3 300.4 347 302.9 345.3 302.9C344.5 302.9 344 302.3 344.9 300.8L350.4 291.2C352 288.3 350.5 286.3 348.4 286.3C346.8 286.3 345.1 287.2 343.2 289.1L344.6 286.6H340.8L334.8 297C334.7 296.9 334.6 296.9 334.4 296.8L334.1 297.1C331.4 300.3 328.7 302.8 327.1 302.8C326.3 302.8 325.8 302.2 326.7 300.7L332.8 290H330.7C330.8 288.4 329.2 286.2 326.7 286.2C324.7 286.2 321.8 287.8 320.2 290.6L316.5 296.9L316.3 297.1C313.6 300.3 310.5 302.8 308.9 302.8C308.1 302.8 307.6 302.2 308.5 300.7L312.3 294.1C313.6 291.8 313 290.5 311.8 289L309.7 286.5C309.2 285.8 309.2 285 309.9 284.3L307.9 282.2C305.8 284.1 305.6 286.3 306.9 288L307.2 288.4C305.5 290.8 303.3 294 300.8 296.9C300.9 297 301 297.1 301.1 297.2C298 300.8 295.3 303.1 292.4 304.4L297.2 296.2H293.4L293 296.9C291 300.4 288.7 302.9 285.8 302.9C283.2 302.9 282.8 300.3 285 296.5L286.1 294.6C286.8 294.7 287.5 294.8 288.2 294.8C301.6 294.8 308.1 276.8 296.3 276.8C294.2 276.8 291.8 278.3 290.1 281.2L284.2 291.3C282 290.1 280.8 288 280.8 285.9C280.8 284.2 281.6 282.4 283.2 281.1L282 278.9C279.3 280.8 278.1 283.4 278.1 285.9C278.1 288.9 279.8 291.8 282.9 293.4L281.8 295.4C279.1 300 279.6 305.1 285 305.1C286.6 305.1 287.9 304.6 289.1 303.9L288.1 305.6C283 307.2 279.8 309.2 279.8 312.1C279.8 315.7 285.4 316.5 288.1 311.8L291 306.8C294.9 305.6 298.8 302.9 302.9 298.1C302.8 298 302.8 297.9 302.7 297.7C304.4 295.7 305.8 293.8 308.7 290L309.2 290.6C309.7 291.2 309.9 292 309.4 292.7L305.4 299.6C303.8 302.4 304.9 305 308 305C309.9 305 312.3 303.8 314.4 302C314.4 303.7 315.5 305 317.7 305C319.2 305 321.1 304 322.9 302.5C323.1 304 324.2 305 326.2 305C328 305 330 303.9 331.9 302.2L330.5 304.6H334.3L340.1 294.5C345.9 287.3 348.5 288.2 346.8 291L341.9 299.5C340.3 302.3 341.4 304.9 344.5 304.9C346.5 304.9 348.3 303.5 350.5 301.6C350.3 303.5 351.5 304.9 353.8 304.9C355.3 304.9 357.2 303.9 359 302.4C359.2 303.9 360.3 304.9 362.3 304.9C365.4 304.9 369 301.6 372.1 297.9C371.6 297.6 371 297 370.5 296.8ZM258.2 291.5C260.4 287.8 264.2 288.4 262 292.3L261.5 293.2C259.7 296.3 257.2 296.2 255.8 295.7L258.2 291.5ZM255.2 305.1C259.5 305.1 263.7 301.8 266.9 298.1C266.6 297.6 266 297 265.5 296.8L265.2 297.1C262.5 300.3 259 302.8 256.3 302.8C254 302.8 252.6 301.3 254.3 298.3L254.7 297.6C257.1 298.6 261.7 298.1 264.5 293.2L265 292.3C267 288.8 265.1 286.2 262 286.2C259 286.2 256.5 287.8 254.9 290.6L251.2 296.9C251.2 296.9 251.1 296.9 251.1 296.8L250.8 297.1C248.1 300.3 245.4 302.8 243.8 302.8C243 302.8 242.5 302.2 243.4 300.7L248.8 291.1C250.4 288.2 248.9 286.2 246.8 286.2C245.2 286.2 243.4 287.1 241.5 289.1L247.5 278.6H243.7L233 297.1C232.9 297 232.7 296.9 232.6 296.8L232.3 297.1C229.6 300.3 226.9 302.8 225.3 302.8C224.5 302.8 224 302.2 224.9 300.7L233 286.6H236.1L237.2 284.8H234.1L237.7 278.6H233.9L230.3 284.8H226.9L225.8 286.6H229.2L221.6 299.8C220 302.6 221.1 305.2 224.2 305.2C226.1 305.2 228.1 304 230.1 302.2L228.6 304.8H232.4L238.1 294.8C243.9 287.5 246.5 288.4 244.9 291.2L240 299.7C238.4 302.5 239.5 305.1 242.6 305.1C244.9 305.1 247.4 303.3 249.9 300.9C250.1 303.3 252.1 305.1 255.2 305.1ZM127.7 291.5C129.9 287.8 133.7 288.4 131.5 292.3L131 293.2C129.2 296.3 126.7 296.2 125.3 295.7L127.7 291.5ZM150.8 300.7L156.1 291.5C158.1 288 162.2 288.9 160.3 292.3L157.4 297.5C155.1 301.1 152.9 302.8 151.3 302.8C150.4 302.7 149.9 302.2 150.8 300.7ZM204.8 291.5C207 287.8 210.8 288.4 208.6 292.3L208.1 293.2C206.3 296.3 203.9 296.2 202.4 295.7L204.8 291.5ZM147 301C146.4 303.2 147.6 305.1 150.1 305.1C151.6 305.1 153.5 304.1 155.3 302.6C155.5 304.1 156.6 305.1 158.6 305.1C160.6 305.1 162.8 303.7 165 301.8C164.6 303.8 165.5 305.1 167.4 305.1C169.5 305.1 171.8 303.2 173.6 301.5C173.2 303.5 174.4 305.1 176.8 305.1C179.9 305.1 183.5 301.8 186.6 298.1C186.6 298.1 186.5 298 186.5 297.9C188.6 295.5 190.4 292.9 191.7 291.1C190.2 295 191 302.1 187.4 302.1C186.1 302.1 185.6 300.7 185.6 300.7L183.2 301.9C183.2 301.9 183.9 305 187.3 305C187.7 305 188 305 188.4 304.9H188.5C191.3 304.5 194 302.8 196.4 300.7C196.5 303.2 198.4 305 201.5 305C205.8 305 210 301.7 213.2 298C212.9 297.5 212.3 296.9 211.8 296.7L211.5 297C208.8 300.2 205.3 302.7 202.6 302.7C200.3 302.7 198.9 301.2 200.6 298.2L201 297.5C203.4 298.5 208 298 210.8 293.1L211.3 292.2C213.3 288.7 211.4 286.1 208.3 286.1C205.2 286.1 202.8 287.7 201.2 290.5L197.5 296.8H197.4L197.1 297.1C195.8 298.7 194.2 300 192.6 301.2C193.8 297.6 193.5 292.1 195.9 287.2L193.1 285.7C191.5 287.8 188.1 292.8 184.7 296.8L184.8 296.9L184.7 297.1C182 300.3 179.3 302.8 177.7 302.8C176.9 302.8 176.4 302.2 177.3 300.7L185.4 286.6H181.6L174.9 298.3C172 300.9 169.8 302.4 169.1 302C168.2 301.6 169.1 300.2 169.6 299.4L177 286.5H173.2L167.2 296.9C167.1 296.8 167 296.8 166.9 296.7L166.6 297C163.9 300.2 161.2 302.7 159.6 302.7C158.8 302.7 158.3 302.1 159.2 300.6L165.3 289.9H163.2C163.3 288.3 161.7 286.1 159.2 286.1C157.2 286.1 154.3 287.7 152.7 290.5L148.9 297.1C148.7 297 148.5 296.8 148.3 296.7L148 297C145.3 300.2 142.1 302.7 139.5 302.7C137.2 302.7 135.8 301.2 137.5 298.2L141.4 291.4C143.6 287.7 147.4 288.3 145.2 292.2L144.7 293.1H147.8L148.3 292.2C150.3 288.7 148.4 286.1 145.3 286.1C142.2 286.1 140.2 287.7 138.6 290.5L134.8 296.9C134.7 296.8 134.6 296.8 134.5 296.7L134.2 297C131.5 300.2 128.3 302.7 125.6 302.7C123.3 302.7 121.9 301.2 123.6 298.2L124 297.5C126.4 298.5 131 298 133.8 293.1L134.3 292.2C136.3 288.7 134.4 286.1 131.3 286.1C128.2 286.1 125.8 287.7 124.2 290.5L120.2 297.3C117.8 301.3 119.9 305 124.3 305C127.6 305 130.3 303 133.1 300.4C133 303 135 305 138.2 305C141.6 305.1 144.3 303.3 147 301ZM110.1 287L113.2 281.8C116 277 119.5 279.8 117.6 283.4C116.1 286.1 114 287 110.1 287ZM106 304.3C103.7 304.3 102 303.8 100.6 303C101.3 302.2 101.9 301.3 102.5 300.3L108.9 289.3L109.9 289.4C118.7 291.2 115.2 304.3 106 304.3ZM115.4 288.8C123 286.2 123.6 276.7 116.1 276.7C114 276.7 111.6 278.2 109.9 281.1L99.7 298.7C99.3 299.5 98.8 300.2 98.2 300.8C95.6 297.2 96.3 291.8 100 289.5L98.5 287.6C90.6 292.6 92.9 307.2 106.1 307.2C117.4 307.2 122.6 293.6 115.4 288.8Z" fill="white"/>
</svg>
